<?xml version="1.0" encoding="UTF-8" standalone="no"?>
<!-- Created with Inkscape (http://www.inkscape.org/) -->

<svg
   width="48mm"
   height="48mm"
   viewBox="0 0 48 48"
   version="1.1"
   id="svg5"
   sodipodi:docname="favicon.svg"
   inkscape:version="1.2.2 (732a01da63, 2022-12-09)"
   xmlns:inkscape="http://www.inkscape.org/namespaces/inkscape"
   xmlns:sodipodi="http://sodipodi.sourceforge.net/DTD/sodipodi-0.dtd"
   xmlns="http://www.w3.org/2000/svg"
   xmlns:svg="http://www.w3.org/2000/svg">
  <sodipodi:namedview
     id="namedview7"
     pagecolor="#ffffff"
     bordercolor="#000000"
     borderopacity="0.25"
     inkscape:showpageshadow="2"
     inkscape:pageopacity="0.0"
     inkscape:pagecheckerboard="0"
     inkscape:deskcolor="#d1d1d1"
     inkscape:document-units="mm"
     showgrid="true"
     inkscape:zoom="0.2287265"
     inkscape:cx="139.90508"
     inkscape:cy="1528.0258"
     inkscape:window-width="1401"
     inkscape:window-height="1360"
     inkscape:window-x="1955"
     inkscape:window-y="0"
     inkscape:window-maximized="0"
     inkscape:current-layer="layer1">
    <inkscape:grid
       type="xygrid"
       id="grid776"
       originx="0"
       originy="0" />
  </sodipodi:namedview>
  <defs
     id="defs2">
    <inkscape:perspective
       sodipodi:type="inkscape:persp3d"
       inkscape:vp_x="3.1318983 : 18.85472 : 1"
       inkscape:vp_y="0 : 1391.4958 : 0"
       inkscape:vp_z="259.66312 : 18.85472 : 1"
       inkscape:persp3d-origin="131.39752 : -10.830524 : 1"
       id="perspective614" />
    <inkscape:perspective
       sodipodi:type="inkscape:persp3d"
       inkscape:vp_x="0 : -15.999998 : 1"
       inkscape:vp_y="0 : 1000 : 0"
       inkscape:vp_z="128 : -15.999998 : 1"
       inkscape:persp3d-origin="64 : -37.333331 : 1"
       id="perspective404" />
  </defs>
  <g
     inkscape:label="Layer 1"
     inkscape:groupmode="layer"
     id="layer1">
    <path
       style="fill:#000000;stroke-width:0.264583"
       d="M 71.430379,79.238559 C 70.064497,78.897087 70.629107,79.127114 69.695228,78.660174"
       id="path394" />
    <path
       id="path798"
       style="fill:#000000;stroke-width:0.214756"
       class="UnoptimicedTransforms"
       d="M 19.84375 1.3229167 A 18.520834 18.520832 0 0 0 1.3229167 19.84375 A 18.520834 18.520832 0 0 0 11.341427 36.283573 A 18.520834 18.520832 0 0 1 9.2604167 27.78125 A 18.520834 18.520832 0 0 1 27.78125 9.2604167 A 18.520834 18.520832 0 0 1 36.291842 11.333158 A 18.520834 18.520832 0 0 0 19.84375 1.3229167 z M 36.291842 11.333158 A 18.520834 18.520832 0 0 1 38.364583 19.84375 A 18.520834 18.520832 0 0 1 19.84375 38.364583 A 18.520834 18.520832 0 0 1 11.341427 36.283573 A 18.520834 18.520832 0 0 0 27.78125 46.302083 A 18.520834 18.520832 0 0 0 46.302083 27.78125 A 18.520834 18.520832 0 0 0 36.291842 11.333158 z " />
    <path
       style="fill:#dce744;stroke-width:0.193218;fill-opacity:1"
       d="m 69.558632,144.68588 c -8.247972,-0.70829 -16.327036,-2.84416 -23.862475,-6.30857 l -2.608449,-1.19923 -0.623101,-1.15581 C 41.410195,134.06641 39.527233,129.482 38.553022,126.49881 32.627659,108.35441 34.45907,88.466201 43.604388,71.643473 46.747648,65.861475 50.789819,60.484454 55.637137,55.637137 66.94652,44.327752 81.168979,37.458484 97.285476,35.521512 c 3.856634,-0.463513 11.602994,-0.463364 15.457474,2.95e-4 7.43941,0.894898 14.72066,2.938625 21.52913,6.04288 l 2.76769,1.261902 1.07634,2.255962 c 3.51485,7.366989 5.76996,15.673404 6.52723,24.042238 0.29384,3.247283 0.12403,11.654642 -0.29755,14.732007 -1.77723,12.973056 -6.73571,24.624144 -14.81598,34.813544 -2.36268,2.97939 -7.76917,8.41457 -10.70048,10.75726 -10.54577,8.42813 -23.341438,13.69249 -36.687978,15.09407 -2.544768,0.26724 -10.216953,0.36737 -12.58272,0.16421 z"
       id="path1158"
       transform="scale(0.26458333)" />
    <path
       style="fill:#0000ff;stroke-width:1.09301"
       d="M 34.850421,131.52929 C 23.34478,122.90241 14.185934,110.62638 9.5463673,97.613075 5.836253,87.20675 4.9660139,70.295935 7.5674685,59.158364 10.297773,47.469151 17.270635,35.141313 26.205974,26.205974 40.520488,11.891459 57.292788,5.4496506 78.150105,6.2555711 95.744972,6.9354316 109.30742,12.55356 122.197,24.501616 c 4.88437,4.527597 12.78954,14.296009 12.78954,15.804033 0,0.365457 -1.84445,-0.0593 -4.09878,-0.943896 -34.25518,-13.441756 -73.306337,1.842346 -89.33064,34.962822 -8.449521,17.464233 -9.066166,35.171775 -2.007812,57.656195 0.807397,2.57197 -0.883168,2.40954 -4.698887,-0.45148 z"
       id="path1231"
       transform="scale(0.26458333)" />
    <path
       style="fill:#4d4d4d;stroke-width:1.09301"
       d="m 88.222754,172.12845 c -15.321404,-4.0142 -29.973895,-13.86489 -39.084543,-26.27608 -2.221977,-3.02694 -3.853528,-5.68995 -3.62567,-5.91781 0.227858,-0.22786 3.233059,0.53732 6.678224,1.70041 19.277291,6.50797 40.660957,4.41571 58.569925,-5.73071 7.94714,-4.50249 20.64108,-17.19643 25.14357,-25.14357 10.14614,-17.908479 12.36293,-41.414984 5.58731,-59.246965 -1.14461,-3.012391 -1.86998,-5.688213 -1.61192,-5.946273 0.9186,-0.918599 11.56447,7.709701 16.90365,13.700128 24.35317,27.323644 22.98085,68.19987 -3.1675,94.34822 -17.59588,17.59589 -42.25127,24.57577 -65.393046,18.51265 z"
       id="path1233"
       transform="scale(0.26458333)" />
    <path
       style="fill:#4f46e5;stroke-width:1.09301;fill-opacity:1"
       d="M 30.288911,126.73792 C 22.601051,119.78081 13.911529,107.38131 10.258925,98.15617 8.0568925,92.594643 7.7413627,89.859115 7.6991766,75.964088 7.6440007,57.790579 8.7992338,52.906422 16.076862,40.544449 24.141249,26.846067 37.705272,15.558809 52.538561,10.202964 61.492017,6.9701452 81.180699,6.1923805 91.688894,8.6564028 c 9.641766,2.2608582 20.567116,8.0172352 28.303686,14.9127312 6.45257,5.75108 13.40813,13.903811 12.57388,14.738058 -0.27367,0.273676 -4.34648,-0.486787 -9.05067,-1.689917 -9.40115,-2.404408 -25.017766,-2.89161 -33.342592,-1.040212 -26.095285,5.803461 -48.105722,27.149398 -54.041647,52.410118 -2.775863,11.812871 -2.088842,25.232869 2.140291,41.807569 0.430653,1.68781 0.317396,3.00578 -0.258297,3.00578 -0.563879,0 -4.039964,-2.72817 -7.724634,-6.06261 z"
       id="path1304"
       transform="scale(0.26458333)" />
    <path
       style="fill:#4f46e5;fill-opacity:1;stroke-width:1.09301"
       d="m 84.700238,170.21279 c -9.809471,-3.34286 -16.507128,-6.99843 -23.603353,-12.88266 -4.646443,-3.85285 -14.097521,-14.51518 -14.097521,-15.90426 0,-0.37441 3.320013,0.31121 7.377807,1.52359 10.076605,3.01067 30.775222,3.2036 40.168061,0.3744 11.810388,-3.55738 21.211338,-9.32377 30.783878,-18.88234 10.02723,-10.01259 15.37695,-19.47394 18.46637,-32.659012 2.3017,-9.823269 1.67237,-31.307222 -1.14548,-39.104088 -1.04377,-2.888066 -1.62265,-5.526142 -1.28641,-5.862392 0.33625,-0.336249 5.24651,3.994129 10.91168,9.623063 8.24191,8.189197 11.07839,11.872611 14.19387,18.431988 13.02122,27.415011 7.87018,56.263091 -13.96839,78.229021 -13.96399,14.04543 -28.74822,20.16282 -48.62133,20.11846 -8.447041,-0.0189 -12.089227,-0.58966 -19.179182,-3.00577 z"
       id="path6576"
       transform="scale(0.26458333)" />
  </g>
</svg>
